<svg xmlns="http://www.w3.org/2000/svg"  viewBox="0 0 64 64" baseProfile="basic"><linearGradient id="2VGA-6IfczTN3l4EKvWaDa" x1="32" x2="32" y1="735.083" y2="780.676" gradientTransform="translate(0 -726)" gradientUnits="userSpaceOnUse"><stop offset="0" stop-color="#1a6dff"/><stop offset="1" stop-color="#c822ff"/></linearGradient><path fill="url(#2VGA-6IfczTN3l4EKvWaDa)" d="M50,55H14c-2.757,0-5-2.243-5-5V14c0-2.757,2.243-5,5-5h36c2.757,0,5,2.243,5,5v36	C55,52.757,52.757,55,50,55z M14,11c-1.654,0-3,1.346-3,3v36c0,1.654,1.346,3,3,3h36c1.654,0,3-1.346,3-3V14c0-1.654-1.346-3-3-3H14	z"/><linearGradient id="2VGA-6IfczTN3l4EKvWaDb" x1="32" x2="32" y1="17.143" y2="46.857" gradientUnits="userSpaceOnUse"><stop offset="0" stop-color="#6dc7ff"/><stop offset="1" stop-color="#e6abff"/></linearGradient><path fill="url(#2VGA-6IfczTN3l4EKvWaDb)" d="M34.154,37.572L45,46.857v-7.429l-8.671-7.424L45,24.571v-7.429	l-15.154,12.99v-3.704L19,17.143v7.429l8.671,7.424L19,39.429v7.429l15.154-12.989V37.572z" opacity=".58"/></svg>